<svg width="95.354" height="92.431" viewBox="0 0 95.354 92.431" xmlns="http://www.w3.org/2000/svg"><g id="svgGroup" stroke-linecap="round" fill-rule="evenodd" font-size="9pt" stroke="#00000000" stroke-width="0.25mm" fill="#e9a6fd" style="stroke:#00000000;stroke-width:0.25mm;fill:#e9a6fd"><path d="M 52.827 3.201 L 64.427 27.201 L 90.327 31.001 A 6.202 6.202 0 0 1 92.415 31.583 Q 94.016 32.379 94.789 34.168 A 7.12 7.12 0 0 1 95.027 34.801 A 6.837 6.837 0 0 1 95.3 35.976 Q 95.594 38.121 94.286 39.919 A 7.446 7.446 0 0 1 93.527 40.801 L 74.827 59.401 L 79.227 85.601 A 7.499 7.499 0 0 1 79.323 86.483 Q 79.443 89.068 77.555 90.791 A 7.158 7.158 0 0 1 76.927 91.301 A 6.389 6.389 0 0 1 75.544 92.074 Q 73.798 92.768 71.948 92.115 A 7.138 7.138 0 0 1 70.827 91.601 L 47.727 79.401 L 24.527 91.601 A 6.997 6.997 0 0 1 23.247 92.169 Q 21.243 92.815 19.362 91.872 A 6.753 6.753 0 0 1 18.427 91.301 A 6.243 6.243 0 0 1 16.939 89.818 Q 15.794 88.169 16.082 85.906 A 8.017 8.017 0 0 1 16.127 85.601 L 20.527 59.401 L 1.827 40.801 A 6.884 6.884 0 0 1 0.678 39.313 Q -0.471 37.267 0.327 34.801 Q 1.427 31.401 5.027 31.001 L 30.927 27.201 L 42.427 3.201 A 6.178 6.178 0 0 1 43.799 1.346 Q 45.036 0.232 46.849 0.04 A 7.403 7.403 0 0 1 47.627 0.001 Q 50.876 0.001 52.496 2.608 A 7.354 7.354 0 0 1 52.827 3.201 Z" vector-effect="non-scaling-stroke"/></g></svg>